<svg width="43" height="36" viewBox="0 0 43 36" fill="none" xmlns="http://www.w3.org/2000/svg">
<path d="M0.728 7.2V1.008H12.296V36H5.384V7.2H0.728ZM21.0466 28.416C24.1186 25.856 26.5666 23.728 28.3906 22.032C30.2146 20.304 31.7346 18.512 32.9506 16.656C34.1666 14.8 34.7746 12.976 34.7746 11.184C34.7746 9.552 34.3906 8.272 33.6226 7.344C32.8546 6.416 31.6706 5.952 30.0706 5.952C28.4706 5.952 27.2386 6.496 26.3746 7.584C25.5106 8.64 25.0626 10.096 25.0306 11.952H18.5026C18.6306 8.112 19.7666 5.2 21.9106 3.216C24.0866 1.232 26.8386 0.239997 30.1666 0.239997C33.8146 0.239997 36.6146 1.216 38.5666 3.168C40.5186 5.088 41.4946 7.632 41.4946 10.8C41.4946 13.296 40.8226 15.68 39.4786 17.952C38.1346 20.224 36.5986 22.208 34.8706 23.904C33.1426 25.568 30.8866 27.584 28.1026 29.952H42.2626V35.52H18.5506V30.528L21.0466 28.416Z" fill="#082673"/>
</svg>
