<svg width="7" height="10" viewBox="0 0 7 10" fill="none" xmlns="http://www.w3.org/2000/svg">
<path d="M3.5 10C3.5 10 7 6.44625 7 3.75C7 2.75544 6.63125 1.80161 5.97487 1.09835C5.3185 0.395088 4.42826 0 3.5 0C2.57174 0 1.6815 0.395088 1.02513 1.09835C0.368749 1.80161 1.38321e-08 2.75544 0 3.75C0 6.44625 3.5 10 3.5 10ZM3.5 5.625C3.03587 5.625 2.59075 5.42746 2.26256 5.07583C1.93437 4.72419 1.75 4.24728 1.75 3.75C1.75 3.25272 1.93437 2.77581 2.26256 2.42417C2.59075 2.07254 3.03587 1.875 3.5 1.875C3.96413 1.875 4.40925 2.07254 4.73744 2.42417C5.06563 2.77581 5.25 3.25272 5.25 3.75C5.25 4.24728 5.06563 4.72419 4.73744 5.07583C4.40925 5.42746 3.96413 5.625 3.5 5.625Z" fill="white"/>
</svg>
