<svg width="60" height="60" viewBox="0 0 60 60" fill="none" xmlns="http://www.w3.org/2000/svg">
<g clip-path="url(#clip0_9_31)">
<path d="M3.03 0L0 3.03L5.33769 12.2608L8.79923 11.7531L29.9285 32.8846L28.1262 34.6154C27.2031 35.5385 27.2031 36.9369 28.1262 37.86L29.0631 38.7992C29.9862 39.7223 31.3985 39.7223 32.0908 38.7992L34.8323 41.5385C34.6015 42.9231 34.8323 44.5685 35.9862 45.7223L48.4615 58.1262C51 60.6646 55.1538 60.6646 57.6923 58.1262C60.6923 55.3569 60.6646 51.2169 58.1262 48.6785L45.7223 36.2008C44.5685 35.0469 42.9231 34.5854 41.5385 35.0469L38.5085 32.3077C39.2008 31.3846 39.2008 29.9723 38.5085 29.2777L37.6431 28.4146C37.4333 28.1958 37.1814 28.0218 36.9026 27.9029C36.6238 27.7839 36.3239 27.7226 36.0208 27.7226C35.7177 27.7226 35.4177 27.7839 35.1389 27.9029C34.8601 28.0218 34.6082 28.1958 34.3985 28.4146L32.8846 29.9285L11.7554 8.79923L12.2585 5.33769L3.03 0ZM48.03 0.0715385C43.4769 -0.306923 37.44 2.71154 34.6154 5.33538C31.14 8.81077 31.7077 13.3546 34.47 17.7415L29.5685 22.6454L33.03 26.5385C34.8762 24.9231 37.5992 24.9231 39.4454 26.5385L40.3846 27.4754L40.6015 27.6923L42.6208 25.6731C46.7931 28.1262 51.1362 28.4792 54.4477 25.1677C57.6785 22.1677 61.1815 14.7692 59.5662 10.3846L53.0769 17.0908C52.1538 18.0138 50.7554 18.0138 49.8323 17.0908L43.1238 10.3846C42.9051 10.1748 42.731 9.92297 42.6121 9.64417C42.4932 9.36537 42.4319 9.06541 42.4319 8.76231C42.4319 8.45921 42.4932 8.15924 42.6121 7.88045C42.731 7.60165 42.9051 7.34979 43.1238 7.14L49.8346 0.433846C49.2577 0.230769 48.6808 0.126923 48.03 0.0715385ZM22.6454 28.8462L14.2777 37.2115C13.3785 37.0118 12.4595 36.915 11.5385 36.9231C5.07692 36.9231 0 42 0 48.4615C0 54.9231 5.07692 60 11.5385 60C18 60 23.0769 54.9231 23.0769 48.4615C23.0769 47.2777 22.89 46.14 22.5715 45.0715L27.4754 40.1677L26.7554 39.2308C24.9092 37.3846 24.9231 34.5877 26.5385 32.7392L22.6454 28.8462ZM40.53 39.3762C40.8185 39.3762 41.0908 39.4315 41.3215 39.6646L54.9531 53.2938C55.4146 53.7554 55.4146 54.4892 54.9531 54.9508C54.4915 55.4123 53.7531 55.4123 53.2915 54.9508L39.6646 41.3215C39.2031 40.86 39.2031 40.1262 39.6646 39.6646C39.8954 39.4338 40.2415 39.3762 40.53 39.3762ZM13.1262 42.4731L17.5246 46.8738L15.9369 52.8577L9.95308 54.4454L5.55231 50.0446L7.14 44.0608L13.1262 42.4731Z" fill="white"/>
</g>
<defs>
<clipPath id="clip0_9_31">
<rect width="60" height="60" fill="white"/>
</clipPath>
</defs>
</svg>
