<svg width="90" height="36" viewBox="0 0 90 36" fill="none" xmlns="http://www.w3.org/2000/svg">
<path d="M0.256 29.184V23.904L15.952 1.44H23.776V23.328H28V29.184H23.776V36H17.056V29.184H0.256ZM17.488 8.64L7.648 23.328H17.488V8.64ZM32.2784 18.048C32.2784 12.512 33.2704 8.176 35.2544 5.04C37.2704 1.904 40.5984 0.335999 45.2384 0.335999C49.8784 0.335999 53.1904 1.904 55.1744 5.04C57.1904 8.176 58.1984 12.512 58.1984 18.048C58.1984 23.616 57.1904 27.984 55.1744 31.152C53.1904 34.32 49.8784 35.904 45.2384 35.904C40.5984 35.904 37.2704 34.32 35.2544 31.152C33.2704 27.984 32.2784 23.616 32.2784 18.048ZM51.5744 18.048C51.5744 15.68 51.4144 13.696 51.0944 12.096C50.8064 10.464 50.1984 9.136 49.2704 8.112C48.3744 7.088 47.0304 6.576 45.2384 6.576C43.4464 6.576 42.0864 7.088 41.1584 8.112C40.2624 9.136 39.6544 10.464 39.3344 12.096C39.0464 13.696 38.9024 15.68 38.9024 18.048C38.9024 20.48 39.0464 22.528 39.3344 24.192C39.6224 25.824 40.2304 27.152 41.1584 28.176C42.0864 29.168 43.4464 29.664 45.2384 29.664C47.0304 29.664 48.3904 29.168 49.3184 28.176C50.2464 27.152 50.8544 25.824 51.1424 24.192C51.4304 22.528 51.5744 20.48 51.5744 18.048ZM89.1816 21.84H80.1096V31.152H73.7736V21.84H64.7016V15.984H73.7736V6.672H80.1096V15.984H89.1816V21.84Z" fill="#082673"/>
</svg>
