<svg width="64" height="55" viewBox="0 0 64 55" fill="none" xmlns="http://www.w3.org/2000/svg">
<path d="M49 31.0641C40.8289 32.4005 37.3228 34.2341 35.6667 42.1402C31.1363 27.1326 22.9274 26.8149 9 27.0364C14.2219 41.9932 19.4511 45.8152 32.1224 46C28.5227 39.7365 25.6302 36.9612 19.8017 32.5745C25.8994 34.0279 29.264 36.8961 35.1603 46C38.3538 40.1284 40.1328 37.713 43.2616 36.7699C39.8493 40.4813 38.72 42.5027 38.1983 46C44.7485 43.2018 48.583 41.8438 49 31.0641Z" fill="#17C834"/>
<path d="M8.4375 28.2305C9.0625 28.2956 9.64844 28.3411 10.1953 28.3672C10.7552 28.3932 11.25 28.4062 11.6797 28.4062C12.0443 28.4062 12.4609 28.3997 12.9297 28.3867C13.3984 28.3607 13.9062 28.3216 14.4531 28.2695C15.7031 27.5143 16.6211 26.6419 17.207 25.6523C17.793 24.6497 18.0859 23.4583 18.0859 22.0781C18.0859 20.2682 17.5 18.8164 16.3281 17.7227C15.1562 16.6289 13.5807 16.082 11.6016 16.082C11.0677 16.082 10.5469 16.1081 10.0391 16.1602C9.53125 16.1992 9.02995 16.2643 8.53516 16.3555C8.49609 17.9701 8.47005 19.6302 8.45703 21.3359C8.44401 23.0417 8.4375 25.3398 8.4375 28.2305ZM1.48438 40.7305C1.57552 40.7435 1.66016 40.7565 1.73828 40.7695C1.82943 40.7695 1.95964 40.7695 2.12891 40.7695C3.86068 40.7695 4.73958 38.3346 4.76562 33.4648C4.77865 32.2409 4.79167 31.2839 4.80469 30.5938L4.88281 25.2617C4.89583 24.1159 4.90234 23.0026 4.90234 21.9219C4.91536 20.8411 4.92188 19.6693 4.92188 18.4062C4.92188 17.2865 4.71354 16.5117 4.29688 16.082C3.88021 15.6523 3.13802 15.4375 2.07031 15.4375H1.91406V14.0703C2.78646 14.1354 3.64583 14.181 4.49219 14.207C5.35156 14.2331 6.1849 14.2461 6.99219 14.2461C7.86458 14.2461 8.94531 14.2201 10.2344 14.168C11.5365 14.1029 12.4023 14.0703 12.832 14.0703C15.5013 14.0703 17.6888 14.7734 19.3945 16.1797C21.1003 17.5859 21.9531 19.3503 21.9531 21.4727C21.9531 23.0482 21.5234 24.4544 20.6641 25.6914C19.8177 26.9154 18.5417 27.9635 16.8359 28.8359L20.4883 34.3633C20.6185 34.5716 20.8138 34.8711 21.0742 35.2617C23.6003 39.1159 25.6706 41.043 27.2852 41.043H27.4805V42.1562C27.2982 42.1693 27.0247 42.1953 26.6602 42.2344C25.8138 42.3125 25.1953 42.3516 24.8047 42.3516C23.4245 42.3516 22.3307 42.1693 21.5234 41.8047C20.7292 41.4271 19.9414 40.7044 19.1602 39.6367C19.0299 39.4674 18.3073 38.3086 16.9922 36.1602C15.6901 34.0117 14.375 31.987 13.0469 30.0859C12.5521 30.138 12.0247 30.1771 11.4648 30.2031C10.9049 30.2292 10.2865 30.2422 9.60938 30.2422H8.4375V36.2383C8.4375 38.1914 8.63932 39.4284 9.04297 39.9492C9.44661 40.457 10.2474 40.7109 11.4453 40.7109C11.4844 40.7109 11.5365 40.7044 11.6016 40.6914C11.6667 40.6784 11.7188 40.6719 11.7578 40.6719C11.8099 40.6719 11.849 40.6784 11.875 40.6914C11.9141 40.7044 11.9401 40.7109 11.9531 40.7109V42C11.0286 41.9479 10.1107 41.9089 9.19922 41.8828C8.28776 41.8568 7.38281 41.8438 6.48438 41.8438C6.0026 41.8438 5.32552 41.8568 4.45312 41.8828C3.58073 41.9089 2.59115 41.9479 1.48438 42V40.7305Z" fill="white"/>
<path d="M59.957 15.0469C59.9831 16.0104 60.0482 16.9935 60.1523 17.9961C60.2565 18.9857 60.4062 20.0013 60.6016 21.043L59.1172 21.3555C58.7526 19.5065 57.8802 18.1393 56.5 17.2539C55.1198 16.3685 53.1667 15.9258 50.6406 15.9258C47.2292 15.9258 44.5794 16.9284 42.6914 18.9336C40.8164 20.9388 39.8789 23.7773 39.8789 27.4492C39.8789 31.3945 40.9531 34.5456 43.1016 36.9023C45.25 39.2591 48.0951 40.4375 51.6367 40.4375C52.3789 40.4375 53.1276 40.3659 53.8828 40.2227C54.638 40.0664 55.4388 39.832 56.2852 39.5195C56.3242 38.5169 56.3503 37.6641 56.3633 36.9609C56.3893 36.2578 56.4023 35.6849 56.4023 35.2422C56.4023 33.0156 56.1549 31.681 55.6602 31.2383C55.1654 30.7826 54.0781 30.5547 52.3984 30.5547H52.125V29.2461C53.2318 29.2982 54.2539 29.3372 55.1914 29.3633C56.1419 29.3893 56.9427 29.4023 57.5938 29.4023C58.5443 29.4023 59.4297 29.3893 60.25 29.3633C61.0833 29.3372 61.8776 29.2982 62.6328 29.2461V30.5547C61.5391 30.5547 60.8229 30.7695 60.4844 31.1992C60.1589 31.6159 59.9961 32.9245 59.9961 35.125V37.1562C59.9961 38.1589 60.0091 38.9401 60.0352 39.5C60.0612 40.0469 60.1003 40.5742 60.1523 41.082C59.7227 41.1732 59.0781 41.3164 58.2188 41.5117C54.8464 42.2669 52.2943 42.6445 50.5625 42.6445C46.0443 42.6445 42.4245 41.3294 39.7031 38.6992C36.9948 36.069 35.6406 32.5794 35.6406 28.2305C35.6406 23.8815 37.099 20.3464 40.0156 17.625C42.9453 14.8906 46.7409 13.5234 51.4023 13.5234C52.8086 13.5234 54.2214 13.6536 55.6406 13.9141C57.0729 14.1615 58.5117 14.5391 59.957 15.0469Z" fill="white"/>
</svg>
